<svg width="256" height="256" viewBox="0 0 256 256" fill="none" xmlns="http://www.w3.org/2000/svg">
<path d="M201.012 90.9332C201.012 48.9686 165.676 15.2543 123.133 17.9266C86.957 20.1971 57.4408 49.466 54.8893 85.6251C53.0965 111.03 64.286 133.912 82.492 148.319C92.7822 156.462 99.0091 168.675 99.0091 181.797V203.092C99.0091 206.787 102.005 209.782 105.7 209.782H150.011C153.706 209.782 156.701 206.787 156.701 203.092V181.792C156.701 168.899 162.526 156.631 172.707 148.724C189.929 135.34 201.012 114.43 201.012 90.9332Z" fill="#FFCD37"/>
<path d="M137.436 237.936H118.277C111.587 237.936 106.163 232.512 106.163 225.822V209.782H149.55V225.822C149.55 232.512 144.126 237.936 137.436 237.936Z" fill="#E2DFE2"/>
<path d="M118.679 203.092V181.797C118.679 168.675 112.452 156.462 102.162 148.319C83.956 133.912 72.7665 111.028 74.5593 85.6251C76.9928 51.138 103.972 22.979 137.849 18.4717C133.075 17.8198 128.157 17.6119 123.136 17.9266C86.957 20.1971 57.4408 49.466 54.8893 85.6251C53.0965 111.028 64.286 133.912 82.492 148.319C92.7822 156.462 99.0091 168.675 99.0091 181.797V203.092C99.0091 206.787 102.005 209.782 105.7 209.782H125.37C121.675 209.782 118.679 206.787 118.679 203.092Z" fill="#FFAB37"/>
<path d="M123.023 225.822V209.782H106.163V225.822C106.163 232.512 111.587 237.936 118.277 237.936H135.137C128.447 237.936 123.023 232.512 123.023 225.822Z" fill="#C1BFC1"/>
<path d="M99.0091 183.54V203.092C99.0091 206.787 102.005 209.782 105.7 209.782H150.011C153.706 209.782 156.701 206.787 156.701 203.092V183.54H99.0091Z" fill="#E2DFE2"/>
<path d="M99.0091 183.54V203.092C99.0091 206.787 102.005 209.782 105.7 209.782H125.37C121.675 209.782 118.679 206.787 118.679 203.092V183.54H99.0091Z" fill="#C1BFC1"/>
<path d="M137.436 240.746H118.277C110.047 240.746 103.353 234.052 103.353 225.822V209.782C103.353 208.228 104.612 206.972 106.163 206.972H149.55C151.104 206.972 152.36 208.228 152.36 209.782V225.822C152.36 234.052 145.666 240.746 137.436 240.746ZM108.973 212.592V225.822C108.973 230.95 113.146 235.126 118.277 235.126H137.436C142.564 235.126 146.74 230.953 146.74 225.822V212.592H108.973Z" fill="black"/>
<path d="M251.497 92.2651H221.761C220.207 92.2651 218.951 91.0062 218.951 89.4551C218.951 87.904 220.207 86.6451 221.761 86.6451H251.497C253.051 86.6451 254.307 87.904 254.307 89.4551C254.307 91.0062 253.051 92.2651 251.497 92.2651Z" fill="black"/>
<path d="M33.9548 92.2651H4.21659C2.66547 92.2651 1.40659 91.0062 1.40659 89.4551C1.40659 87.904 2.66547 86.6451 4.21659 86.6451H33.9548C35.5059 86.6451 36.7648 87.904 36.7648 89.4551C36.7648 91.0062 35.5059 92.2651 33.9548 92.2651Z" fill="black"/>
<path d="M209.99 46.7403C209.001 46.7403 208.043 46.2177 207.528 45.2932C206.775 43.9359 207.267 42.2246 208.627 41.4744L234.637 27.0591C235.991 26.306 237.705 26.7977 238.455 28.155C239.206 29.5122 238.717 31.2235 237.357 31.9738L211.347 46.3891C210.917 46.6279 210.451 46.7403 209.99 46.7403Z" fill="black"/>
<path d="M19.7222 152.208C18.7331 152.208 17.7748 151.685 17.2634 150.758C16.5103 149.404 17.0021 147.692 18.3593 146.939L44.3659 132.521C45.7231 131.771 47.4316 132.26 48.1847 133.62C48.9377 134.974 48.446 136.686 47.0888 137.439L21.0822 151.857C20.6495 152.096 20.183 152.208 19.7222 152.208Z" fill="black"/>
<path d="M45.7231 46.7403C45.2623 46.7403 44.7958 46.6279 44.3631 46.3891L18.3565 31.9738C16.9993 31.2179 16.5075 29.5066 17.2606 28.1522C18.0137 26.7949 19.7222 26.3032 21.0794 27.0563L47.086 41.4716C48.4432 42.2246 48.9349 43.9331 48.1819 45.2904C47.6704 46.2177 46.7122 46.7403 45.7231 46.7403Z" fill="black"/>
<path d="M235.991 152.208C235.53 152.208 235.064 152.096 234.634 151.857L208.624 137.439C207.267 136.683 206.775 134.974 207.526 133.62C208.279 132.26 209.993 131.771 211.344 132.521L237.354 146.939C238.711 147.695 239.203 149.404 238.453 150.758C237.941 151.685 236.98 152.208 235.991 152.208Z" fill="black"/>
<path d="M156.704 186.35H99.0091C97.458 186.35 96.1991 185.093 96.1991 183.54V181.797C96.1991 169.692 90.5679 158.295 80.7469 150.522C61.0235 134.913 50.309 110.578 52.0849 85.4256C54.746 47.7154 85.2148 17.491 122.959 15.1194C144.18 13.7706 164.403 21.0429 179.853 35.5481C195.086 49.8566 203.822 70.0408 203.822 90.9332C203.822 114.554 193.108 136.424 174.43 150.941C165.089 158.202 159.511 169.734 159.511 181.792V183.542C159.514 185.093 158.255 186.35 156.704 186.35ZM101.808 180.73H153.908C154.223 167.334 160.557 154.605 170.984 146.501C188.283 133.058 198.205 112.803 198.205 90.9304C198.205 71.3025 190.32 53.0853 176.009 39.6423C161.703 26.2105 143.022 19.4946 123.313 20.7281C88.3648 22.9256 60.1553 50.9075 57.6909 85.8218C56.047 109.122 65.9691 131.661 84.2341 146.116C95.1229 154.731 101.488 167.298 101.808 180.73Z" fill="black"/>
<path d="M150.013 212.592H105.7C100.462 212.592 96.1991 208.329 96.1991 203.089V183.54C96.1991 181.986 97.458 180.73 99.0091 180.73H156.701C158.255 180.73 159.511 181.986 159.511 183.54V203.089C159.514 208.332 155.251 212.592 150.013 212.592ZM101.819 186.35V203.089C101.819 205.23 103.561 206.972 105.7 206.972H150.013C152.155 206.972 153.894 205.23 153.894 203.089V186.35H101.819Z" fill="black"/>
<path d="M127.857 104.219C122.501 104.219 117.263 100.836 112.284 94.1619C111.356 92.917 111.612 91.158 112.857 90.2279C114.104 89.2978 115.863 89.5591 116.791 90.8011C124.51 101.153 131.209 101.148 138.922 90.8011C139.85 89.5563 141.614 89.3006 142.854 90.2307C144.098 91.158 144.354 92.9199 143.427 94.1619C138.453 100.836 133.21 104.219 127.857 104.219Z" fill="black"/>
<path d="M89.9216 91.3266C88.3705 91.3266 87.1116 90.0677 87.1116 88.5166V81.8709C87.1116 80.3198 88.3705 79.0609 89.9216 79.0609C91.4727 79.0609 92.7316 80.3198 92.7316 81.8709V88.5166C92.7316 90.0677 91.4727 91.3266 89.9216 91.3266Z" fill="black"/>
<path d="M165.792 91.3266C164.238 91.3266 162.982 90.0677 162.982 88.5166V81.8709C162.982 80.3198 164.238 79.0609 165.792 79.0609C167.345 79.0609 168.602 80.3198 168.602 81.8709V88.5166C168.602 90.0677 167.345 91.3266 165.792 91.3266Z" fill="black"/>
</svg>
