<svg width="256" height="256" viewBox="0 0 256 256" fill="none" xmlns="http://www.w3.org/2000/svg">
<path d="M201.012 90.9332C201.012 48.9686 165.676 15.2543 123.133 17.9266C86.957 20.1971 57.4408 49.466 54.8893 85.6251C53.0965 111.03 64.286 133.912 82.492 148.319C92.7822 156.462 99.0091 168.675 99.0091 181.797V203.092C99.0091 206.787 102.005 209.782 105.7 209.782H150.011C153.706 209.782 156.701 206.787 156.701 203.092V181.792C156.701 168.899 162.526 156.631 172.707 148.724C189.929 135.34 201.012 114.43 201.012 90.9332Z" fill="#897D7D"/>
<path d="M158.261 82.3666L146.367 94.2609C145.746 94.8813 144.292 94.4344 143.121 93.2635C141.95 92.0925 141.504 90.6386 142.124 90.0182L154.018 78.1239C154.639 77.5035 156.092 77.9504 157.263 79.1213C158.434 80.2923 158.881 81.7462 158.261 82.3666Z" fill="black"/>
<path d="M154.211 94.4533L142.316 82.5589C141.696 81.9385 142.143 80.4847 143.314 79.3137C144.485 78.1427 145.939 77.6959 146.559 78.3163L158.453 90.2106C159.074 90.831 158.627 92.2849 157.456 93.4559C156.285 94.6268 154.831 95.0737 154.211 94.4533Z" fill="black"/>
<path d="M137.436 237.936H118.277C111.587 237.936 106.163 232.512 106.163 225.822V209.782H149.55V225.822C149.55 232.512 144.126 237.936 137.436 237.936Z" fill="#E2DFE2"/>
<path d="M118.679 203.092V181.797C118.679 168.675 112.452 156.462 102.162 148.319C83.956 133.912 72.7665 111.028 74.5593 85.6251C76.9928 51.138 103.972 22.979 137.849 18.4717C133.075 17.8198 128.157 17.6119 123.136 17.9266C86.957 20.1971 57.4408 49.466 54.8893 85.6251C53.0965 111.028 64.286 133.912 82.492 148.319C92.7822 156.462 99.0091 168.675 99.0091 181.797V203.092C99.0091 206.787 102.005 209.782 105.7 209.782H125.37C121.675 209.782 118.679 206.787 118.679 203.092Z" fill="#655D5D"/>
<path d="M123.023 225.822V209.782H106.163V225.822C106.163 232.512 111.587 237.936 118.277 237.936H135.137C128.447 237.936 123.023 232.512 123.023 225.822Z" fill="#C1BFC1"/>
<path d="M99.0091 183.54V203.092C99.0091 206.787 102.005 209.782 105.7 209.782H150.011C153.706 209.782 156.701 206.787 156.701 203.092V183.54H99.0091Z" fill="#E2DFE2"/>
<path d="M99.0091 183.54V203.092C99.0091 206.787 102.005 209.782 105.7 209.782H125.37C121.675 209.782 118.679 206.787 118.679 203.092V183.54H99.0091Z" fill="#C1BFC1"/>
<path d="M137.436 240.746H118.277C110.047 240.746 103.353 234.052 103.353 225.822V209.782C103.353 208.228 104.612 206.972 106.163 206.972H149.55C151.104 206.972 152.36 208.228 152.36 209.782V225.822C152.36 234.052 145.666 240.746 137.436 240.746ZM108.973 212.592V225.822C108.973 230.95 113.146 235.126 118.277 235.126H137.436C142.564 235.126 146.74 230.953 146.74 225.822V212.592H108.973Z" fill="black"/>
<path d="M156.704 186.35H99.0091C97.458 186.35 96.1991 185.093 96.1991 183.54V181.797C96.1991 169.692 90.5679 158.295 80.747 150.522C61.0236 134.913 50.309 110.578 52.085 85.4256C54.746 47.7154 85.2148 17.491 122.959 15.1194C144.18 13.7706 164.403 21.0429 179.853 35.5481C195.086 49.8566 203.822 70.0408 203.822 90.9332C203.822 114.554 193.108 136.424 174.43 150.941C165.089 158.202 159.511 169.734 159.511 181.792V183.542C159.514 185.093 158.255 186.35 156.704 186.35ZM101.808 180.73H153.908C154.223 167.334 160.557 154.605 170.984 146.501C188.283 133.058 198.205 112.803 198.205 90.9304C198.205 71.3025 190.32 53.0853 176.009 39.6423C161.703 26.2105 143.022 19.4946 123.313 20.7281C88.3649 22.9256 60.1553 50.9075 57.6909 85.8218C56.0471 109.122 65.9692 131.661 84.2342 146.116C95.1229 154.731 101.488 167.298 101.808 180.73Z" fill="black"/>
<path d="M150.013 212.592H105.7C100.462 212.592 96.1991 208.329 96.1991 203.089V183.54C96.1991 181.986 97.458 180.73 99.0091 180.73H156.701C158.255 180.73 159.511 181.986 159.511 183.54V203.089C159.514 208.332 155.251 212.592 150.013 212.592ZM101.819 186.35V203.089C101.819 205.23 103.561 206.972 105.7 206.972H150.013C152.155 206.972 153.894 205.23 153.894 203.089V186.35H101.819Z" fill="black"/>
<path d="M117.068 82.1742L105.174 94.0685C104.554 94.6889 103.1 94.242 101.929 93.0711C100.758 91.9001 100.311 90.4462 100.932 89.8258L112.826 77.9315C113.446 77.3111 114.9 77.758 116.071 78.9289C117.242 80.0999 117.689 81.5538 117.068 82.1742Z" fill="black"/>
<path d="M113.018 94.2609L101.124 82.3665C100.504 81.7462 100.95 80.2923 102.121 79.1213C103.292 77.9504 104.746 77.5035 105.367 78.1239L117.261 90.0182C117.881 90.6386 117.434 92.0925 116.263 93.2635C115.092 94.4344 113.639 94.8813 113.018 94.2609Z" fill="black"/>
<path d="M131.001 101C125.688 101 120.492 104.023 115.553 109.986C114.633 111.099 114.887 112.67 116.122 113.502C117.359 114.333 119.104 114.099 120.024 112.989C127.681 103.739 134.327 103.744 141.979 112.989C142.899 114.102 144.649 114.33 145.878 113.499C147.113 112.67 147.367 111.096 146.447 109.986C141.513 104.023 136.312 101 131.001 101Z" fill="black"/>
<path d="M70.5 69L44.5 34L93.5 14H146V25L154 34V45L146 56L135 69L123 56L112 45L109 56H98L87 47.5V63.5L76.5 77L70.5 69Z" fill="white" stroke="white"/>
</svg>
