<svg width="256" height="256" viewBox="0 0 256 256" fill="none" xmlns="http://www.w3.org/2000/svg">
<path d="M201.012 90.9332C201.012 48.9687 165.676 15.2543 123.133 17.9266C86.957 20.1971 57.4408 49.466 54.8893 85.6251C53.0965 111.03 64.286 133.912 82.492 148.319C92.7822 156.462 99.0091 168.675 99.0091 181.797V203.092C99.0091 206.787 102.005 209.782 105.7 209.782H150.011C153.706 209.782 156.701 206.787 156.701 203.092V181.792C156.701 168.899 162.526 156.631 172.707 148.724C189.929 135.34 201.012 114.43 201.012 90.9332Z" fill="#897D7D"/>
<path d="M160.411 89H143.589C142.712 89 142 87.656 142 86C142 84.344 142.712 83 143.589 83H160.411C161.288 83 162 84.344 162 86C162 87.656 161.288 89 160.411 89Z" fill="black"/>
<path d="M137.436 237.936H118.277C111.587 237.936 106.163 232.512 106.163 225.822V209.782H149.55V225.822C149.55 232.512 144.126 237.936 137.436 237.936Z" fill="#E2DFE2"/>
<path d="M118.679 203.092V181.797C118.679 168.675 112.452 156.462 102.162 148.319C83.956 133.912 72.7665 111.028 74.5593 85.6251C76.9928 51.138 103.972 22.979 137.849 18.4717C133.075 17.8198 128.157 17.6119 123.136 17.9266C86.957 20.1971 57.4408 49.466 54.8893 85.6251C53.0965 111.028 64.286 133.912 82.492 148.319C92.7822 156.462 99.0091 168.675 99.0091 181.797V203.092C99.0091 206.787 102.005 209.782 105.7 209.782H125.37C121.675 209.782 118.679 206.787 118.679 203.092Z" fill="#655D5D"/>
<path d="M123.023 225.822V209.782H106.163V225.822C106.163 232.512 111.587 237.936 118.277 237.936H135.137C128.447 237.936 123.023 232.512 123.023 225.822Z" fill="#C1BFC1"/>
<path d="M99.0091 183.54V203.092C99.0091 206.787 102.005 209.782 105.7 209.782H150.011C153.706 209.782 156.701 206.787 156.701 203.092V183.54H99.0091Z" fill="#E2DFE2"/>
<path d="M99.0091 183.54V203.092C99.0091 206.787 102.005 209.782 105.7 209.782H125.37C121.675 209.782 118.679 206.787 118.679 203.092V183.54H99.0091Z" fill="#C1BFC1"/>
<path d="M137.436 240.746H118.277C110.047 240.746 103.353 234.052 103.353 225.822V209.782C103.353 208.228 104.612 206.972 106.163 206.972H149.55C151.104 206.972 152.36 208.228 152.36 209.782V225.822C152.36 234.052 145.666 240.746 137.436 240.746ZM108.973 212.592V225.822C108.973 230.95 113.146 235.126 118.277 235.126H137.436C142.564 235.126 146.74 230.953 146.74 225.822V212.592H108.973Z" fill="black"/>
<path d="M156.704 186.35H99.0091C97.458 186.35 96.1991 185.094 96.1991 183.54V181.797C96.1991 169.692 90.5679 158.295 80.7469 150.522C61.0235 134.913 50.309 110.578 52.0849 85.4256C54.746 47.7154 85.2148 17.491 122.959 15.1194C144.18 13.7706 164.403 21.0429 179.853 35.5481C195.086 49.8566 203.822 70.0408 203.822 90.9332C203.822 114.554 193.108 136.424 174.43 150.941C165.089 158.202 159.511 169.734 159.511 181.792V183.542C159.514 185.094 158.255 186.35 156.704 186.35ZM101.808 180.73H153.908C154.223 167.334 160.557 154.605 170.984 146.501C188.283 133.058 198.205 112.803 198.205 90.9304C198.205 71.3025 190.32 53.0853 176.009 39.6423C161.703 26.2105 143.022 19.4946 123.313 20.7282C88.3648 22.9256 60.1553 50.9076 57.6909 85.8218C56.047 109.122 65.9691 131.661 84.2341 146.116C95.1229 154.731 101.488 167.298 101.808 180.73Z" fill="black"/>
<path d="M150.013 212.592H105.7C100.462 212.592 96.1991 208.329 96.1991 203.089V183.54C96.1991 181.986 97.458 180.73 99.0091 180.73H156.701C158.255 180.73 159.511 181.986 159.511 183.54V203.089C159.514 208.332 155.251 212.592 150.013 212.592ZM101.819 186.35V203.089C101.819 205.23 103.561 206.972 105.7 206.972H150.013C152.155 206.972 153.894 205.23 153.894 203.089V186.35H101.819Z" fill="black"/>
<path d="M130 112C127.24 112 125 110.666 125 109.022V101.978C125 100.334 127.24 99 130 99C132.76 99 135 100.334 135 101.978V109.022C135 110.666 132.76 112 130 112Z" fill="black"/>
<path d="M117.411 89H100.589C99.7121 89 99 87.656 99 86C99 84.344 99.7121 83 100.589 83H117.411C118.288 83 119 84.344 119 86C119 87.656 118.288 89 117.411 89Z" fill="black"/>
<path d="M24.0455 39V36.9545L36.5909 18.2273H23.9091V15.7273H39.9545V17.7727L27.4091 36.5H40.0909V39H24.0455Z" fill="black"/>
<path d="M64.0455 99V96.9545L76.5909 78.2273H63.9091V75.7273H79.9545V77.7727L67.4091 96.5H80.0909V99H64.0455Z" fill="black"/>
<path d="M44.0455 68V65.9545L56.5909 47.2273H43.9091V44.7273H59.9545V46.7727L47.4091 65.5H60.0909V68H44.0455Z" fill="black"/>
</svg>
